
<svg xmlns="http://www.w3.org/2000/svg" width="1024" height="1024" viewBox="0 0 1024 1024">
<g>
<path d="M 311.82 445.25 C312.29,447.78 309.37,447.43 303.75,444.31 C298.79,441.54 297.99,440.33 300.50,439.36 C302.61,438.55 311.43,443.14 311.82,445.25 ZM 506.73 426.55 C501.29,429.85 500.00,430.15 500.00,428.12 C500.00,425.92 502.40,423.77 506.78,422.03 C512.32,419.84 512.28,423.19 506.73,426.55 ZM 795.50 436.00 C794.40,437.77 782.00,436.85 782.00,434.99 C782.00,433.89 784.30,433.24 790.50,432.60 C793.25,432.31 794.60,432.33 793.50,432.64 C789.83,433.66 789.47,435.00 792.86,435.00 C794.78,435.00 795.86,435.41 795.50,436.00 ZM 716.73 446.02 C712.73,448.46 712.00,448.49 712.00,446.16 C712.00,445.15 713.24,443.70 714.75,442.94 C716.26,442.18 717.78,441.42 718.13,441.24 C718.47,441.06 719.02,441.62 719.36,442.49 C719.76,443.55 718.91,444.69 716.73,446.02 ZM 237.79 435.15 C237.08,435.60 233.57,435.91 230.00,435.83 L 223.50 435.69 L 228.50 435.04 C233.61,434.39 232.95,433.76 226.00,432.67 C224.37,432.41 224.86,432.22 227.38,432.14 C232.41,431.96 239.55,434.03 237.79,435.15 ZM 394.50 353.00 C394.89,353.64 392.18,354.00 387.06,354.00 C382.35,354.00 379.00,353.58 379.00,353.00 C379.00,352.42 382.15,352.00 386.44,352.00 C390.53,352.00 394.16,352.45 394.50,353.00 ZM 642.50 768.00 C642.16,768.55 640.33,769.00 638.44,769.00 C636.55,769.00 635.00,768.55 635.00,768.00 C635.00,767.45 636.83,767.00 639.06,767.00 C641.51,767.00 642.87,767.40 642.50,768.00 ZM 383.50 619.00 C383.16,619.55 381.53,620.00 379.88,620.00 C378.14,620.00 377.14,619.58 377.50,619.00 C377.84,618.45 379.47,618.00 381.12,618.00 C382.86,618.00 383.86,618.42 383.50,619.00 ZM 559.82 301.33 C560.29,303.75 558.33,303.39 557.70,300.94 C557.35,299.63 557.58,299.03 558.33,299.28 C558.97,299.49 559.65,300.42 559.82,301.33 ZM 693.58 680.25 C693.90,680.57 694.00,681.88 693.79,683.16 L 693.43 685.50 L 692.62 683.17 C691.84,680.90 692.43,679.09 693.58,680.25 ZM 643.50 375.00 C643.84,375.55 643.19,376.00 642.06,376.00 C640.93,376.00 640.00,375.55 640.00,375.00 C640.00,374.45 640.65,374.00 641.44,374.00 C642.23,374.00 643.16,374.45 643.50,375.00 ZM 537.00 257.00 C537.00,257.55 536.33,258.00 535.50,258.00 C534.67,258.00 534.00,257.55 534.00,257.00 C534.00,256.45 534.67,256.00 535.50,256.00 C536.33,256.00 537.00,256.45 537.00,257.00 ZM 652.60 270.27 C652.94,270.60 653.02,271.44 652.79,272.14 C652.45,273.15 652.21,273.15 651.58,272.13 C650.75,270.78 651.59,269.25 652.60,270.27 Z" fill="rgb(16,39,90)"/>
<path d="M 474.64 841.55 C472.92,841.05 471.53,841.12 471.14,841.71 C470.79,842.26 470.05,842.59 469.50,842.45 C468.95,842.32 464.45,841.67 459.50,841.00 C447.47,839.39 419.81,833.01 415.76,830.90 C414.81,830.41 413.24,830.00 412.28,830.00 C411.32,830.00 408.28,829.13 405.52,828.06 C402.76,827.00 395.55,824.25 389.50,821.95 C369.48,814.34 347.98,803.21 328.00,790.11 C324.98,788.12 322.04,786.28 321.48,786.00 C320.93,785.72 317.84,783.47 314.62,781.00 C311.40,778.53 307.77,775.83 306.56,775.00 C301.84,771.81 289.95,761.00 277.41,748.53 C265.64,736.81 244.93,712.48 241.87,706.76 C241.22,705.54 239.07,702.45 237.09,699.90 C235.12,697.34 232.75,693.96 231.84,692.38 C230.93,690.79 227.84,685.67 224.97,681.00 C219.48,672.05 204.00,641.17 204.00,639.16 C204.00,638.52 202.91,635.72 201.57,632.95 C200.23,630.18 198.83,626.47 198.45,624.71 C198.08,622.94 197.40,621.04 196.95,620.48 C196.50,619.91 195.20,615.99 194.07,611.75 C192.93,607.51 191.37,602.35 190.61,600.27 C189.35,596.87 187.79,590.18 184.85,575.50 C184.30,572.75 183.47,569.15 183.00,567.50 C181.34,561.59 180.64,555.31 180.32,543.50 C180.14,536.90 179.74,523.43 179.43,513.58 C178.98,499.30 179.14,495.50 180.19,494.91 C181.20,494.35 181.47,491.04 181.34,481.09 C181.23,472.55 181.53,468.00 182.21,468.00 C182.79,468.00 187.04,471.22 191.67,475.15 L 200.09 482.30 L 237.55 481.74 C269.31,481.27 275.00,481.40 275.00,482.59 C275.00,483.37 275.45,484.00 276.00,484.00 C276.55,484.00 277.00,484.64 277.00,485.41 C277.00,486.29 275.41,487.09 272.76,487.54 C270.43,487.93 266.72,488.90 264.51,489.68 C262.31,490.46 253.30,492.93 244.50,495.17 C227.93,499.38 224.66,500.54 225.19,501.99 C225.47,502.76 234.06,510.04 253.37,525.87 C257.15,528.97 261.81,532.88 263.74,534.56 L 267.24 537.61 L 275.87 534.76 C280.62,533.19 285.28,532.11 286.24,532.36 C287.19,532.60 289.10,531.92 290.48,530.84 C291.85,529.76 295.80,528.17 299.24,527.31 C302.68,526.45 305.95,525.43 306.50,525.05 C307.05,524.67 309.30,523.85 311.50,523.23 C313.70,522.60 318.52,521.17 322.21,520.05 C329.32,517.88 332.00,517.52 332.00,518.75 C332.00,519.17 325.14,525.02 316.75,531.76 C308.36,538.50 299.05,546.21 296.06,548.89 L 290.61 553.78 L 296.56 557.50 C299.82,559.55 304.08,562.23 306.00,563.45 C307.92,564.66 313.17,567.94 317.67,570.73 L 325.83 575.80 L 339.17 570.36 C346.50,567.37 354.30,564.21 356.50,563.34 C358.70,562.47 362.30,560.95 364.50,559.97 C371.08,557.04 375.91,555.57 376.62,556.29 C376.99,556.65 373.29,561.30 368.39,566.61 C363.50,571.91 358.31,577.66 356.86,579.37 C355.42,581.09 353.39,582.49 352.36,582.49 C351.08,582.50 350.40,583.35 350.19,585.21 C349.85,588.13 350.09,588.27 371.50,598.01 C372.55,598.49 373.52,598.93 374.41,599.34 C381.28,602.48 383.90,603.69 386.24,603.27 C387.99,602.96 389.58,601.74 392.67,599.75 C410.14,588.48 412.00,587.57 412.00,590.28 C412.00,590.98 408.62,594.90 404.50,599.00 C400.38,603.10 397.00,606.94 397.00,607.53 C397.00,608.50 408.38,614.00 419.75,618.53 C424.35,620.36 424.80,621.09 422.50,623.00 C421.67,623.68 421.00,624.87 421.00,625.64 C421.00,627.87 415.96,634.88 413.89,635.54 C412.85,635.87 411.94,636.44 411.87,636.82 C411.80,637.19 411.62,638.62 411.47,640.00 C410.95,644.78 410.06,647.23 407.68,650.36 C406.37,652.09 404.55,654.95 403.64,656.72 C401.31,661.24 399.42,661.97 393.30,660.70 C388.73,659.76 387.25,659.91 380.96,662.01 C375.24,663.92 373.04,665.28 369.91,668.84 C367.76,671.28 366.00,674.09 366.00,675.07 C366.00,676.05 365.44,677.45 364.75,678.18 C362.07,681.02 360.94,686.37 362.26,690.04 C362.94,691.95 363.74,693.72 364.03,694.00 C364.32,694.28 365.41,696.43 366.45,698.79 C368.62,703.72 374.03,708.95 380.20,712.10 C393.43,718.85 412.50,710.71 417.45,696.21 C419.44,690.36 419.41,686.08 417.32,678.64 L 415.64 672.65 L 418.05 671.08 C419.37,670.21 421.81,668.32 423.48,666.89 C427.59,663.34 439.70,655.34 450.00,649.39 C456.51,645.63 459.67,644.41 463.50,644.18 L 468.50 643.88 L 477.24 663.69 C482.05,674.58 487.13,686.42 488.53,690.00 C489.94,693.58 491.60,697.54 492.24,698.81 C493.14,700.60 493.11,701.59 492.12,703.18 C490.73,705.41 491.42,706.61 494.42,707.15 C495.83,707.41 497.60,710.65 501.15,719.50 C508.11,736.85 510.20,741.23 511.78,741.76 C512.30,741.93 514.62,737.44 516.95,731.79 C519.27,726.13 522.89,717.67 525.00,713.00 C531.24,699.11 544.28,669.38 549.05,658.16 C550.45,654.88 552.17,652.51 553.54,651.99 C555.01,651.43 555.97,649.97 556.41,647.63 C557.20,643.41 559.56,642.37 563.60,644.47 C565.19,645.31 567.08,645.99 567.80,645.99 C569.51,646.00 584.67,654.05 586.92,656.14 C587.89,657.05 590.05,658.49 591.70,659.35 C593.36,660.21 597.77,663.40 601.49,666.45 C605.21,669.50 608.69,672.00 609.23,672.00 C609.82,672.00 609.93,673.86 609.51,676.75 C607.97,687.31 608.39,694.44 610.87,699.72 C617.09,713.00 636.97,718.92 648.50,710.93 C654.37,706.86 660.59,699.93 661.46,696.50 C661.88,694.85 662.44,690.71 662.70,687.30 C663.12,681.77 662.83,680.46 660.05,675.30 C654.92,665.77 651.72,662.94 642.93,660.14 C638.52,658.73 631.33,658.65 630.50,660.00 C630.16,660.55 628.81,661.00 627.49,661.00 C625.60,661.00 624.63,659.97 622.83,656.05 C621.58,653.33 619.53,650.55 618.28,649.88 C617.03,649.21 616.00,648.33 616.00,647.92 C616.00,647.51 612.41,641.29 608.02,634.10 L 600.05 621.02 L 602.27 619.58 C603.50,618.79 605.85,617.60 607.50,616.93 C609.15,616.26 612.53,614.82 615.00,613.73 C617.47,612.63 621.41,610.91 623.75,609.90 C628.16,608.00 629.30,605.55 626.22,604.57 C625.24,604.26 621.77,601.31 618.51,598.01 C614.18,593.64 612.88,591.72 613.69,590.91 C614.70,589.90 623.35,593.91 636.50,601.49 C639.46,603.19 639.61,603.17 647.00,599.69 C655.25,595.80 666.38,590.74 669.50,589.45 C670.60,589.00 672.40,588.60 673.50,588.56 C675.04,588.51 675.50,587.81 675.50,585.50 C675.50,583.83 674.94,582.44 674.25,582.38 C673.56,582.31 672.66,582.14 672.25,582.01 C671.84,581.88 671.01,581.71 670.41,581.63 C669.47,581.52 663.34,575.25 651.21,562.00 C649.45,560.08 648.01,558.16 648.00,557.75 C647.99,556.16 652.57,557.14 661.36,560.59 C666.39,562.57 672.97,565.12 676.00,566.27 C679.03,567.41 684.20,569.56 687.50,571.04 C696.80,575.20 697.61,575.34 700.71,573.15 C702.25,572.08 709.69,567.29 717.25,562.51 C724.81,557.74 731.00,553.43 731.00,552.94 C731.00,552.13 722.39,544.57 702.94,528.27 C698.85,524.84 694.60,521.39 693.50,520.60 C688.54,517.04 694.68,517.65 708.00,522.04 C711.03,523.04 718.11,525.26 723.75,526.97 C729.39,528.68 734.00,530.51 734.00,531.03 C734.00,531.55 735.01,531.91 736.25,531.84 C737.49,531.76 742.09,532.89 746.47,534.35 C750.86,535.81 754.82,537.00 755.28,537.00 C755.74,537.00 759.73,534.19 764.14,530.75 C787.07,512.89 799.24,502.81 799.75,501.25 C800.23,499.80 800.03,499.72 789.50,497.44 C785.10,496.49 776.33,494.36 770.00,492.71 C763.67,491.07 755.71,488.99 752.30,488.11 C744.82,486.17 743.23,484.91 745.44,482.71 C746.63,481.51 747.74,481.35 750.12,482.03 C751.96,482.56 757.15,482.55 762.87,481.99 C768.16,481.47 780.33,481.04 789.89,481.03 C804.61,481.00 807.46,481.24 808.44,482.58 C810.08,484.82 823.84,483.54 824.83,481.06 C826.25,477.51 840.47,466.34 841.48,467.97 C842.99,470.41 844.77,494.86 844.87,514.50 C845.00,541.76 840.72,574.73 834.03,598.00 C833.00,601.58 831.40,607.20 830.48,610.50 C828.92,616.10 826.11,623.99 820.52,638.50 C817.65,645.98 806.27,669.57 802.92,675.00 C802.41,675.83 801.53,677.40 800.96,678.50 C797.05,686.07 776.14,717.00 774.94,717.00 C774.50,717.00 773.88,717.79 773.57,718.75 C773.25,719.71 770.54,723.20 767.53,726.50 C764.52,729.80 760.15,734.75 757.81,737.50 C752.93,743.24 728.45,766.41 722.50,770.92 C720.30,772.59 717.83,774.54 717.00,775.26 C710.19,781.20 685.97,797.04 675.00,802.72 C671.97,804.29 667.47,806.76 665.00,808.20 C660.35,810.93 642.64,819.04 636.18,821.41 C634.15,822.15 629.35,823.97 625.50,825.46 C617.89,828.40 612.54,830.06 601.00,833.09 C582.32,837.98 570.53,840.04 558.00,840.60 C551.67,840.88 545.60,841.55 544.50,842.09 C542.10,843.25 478.89,842.76 474.64,841.55 ZM 570.00 234.31 C570.00,236.52 570.06,236.51 577.00,233.00 C580.27,231.35 583.62,230.00 584.45,230.00 C585.28,230.00 588.43,231.21 591.45,232.69 C594.47,234.18 597.25,235.09 597.62,234.72 C597.99,234.35 597.57,231.22 596.70,227.77 L 595.11 221.50 L 600.02 217.00 C604.80,212.62 606.53,209.71 604.50,209.47 C603.95,209.41 600.89,209.00 597.70,208.56 L 591.91 207.76 L 588.83 201.63 C587.15,198.26 585.61,195.33 585.43,195.13 C584.73,194.35 582.10,197.86 579.85,202.58 C577.54,207.42 577.41,207.51 572.00,208.14 C568.97,208.49 565.38,209.22 564.00,209.76 L 561.50 210.75 L 566.88 216.12 L 572.27 221.50 L 571.13 227.06 C570.51,230.12 570.00,233.38 570.00,234.31 ZM 607.00 509.95 C597.95,516.16 589.00,519.11 589.00,515.87 C589.00,515.33 588.60,515.13 588.11,515.43 C587.62,515.73 587.03,514.67 586.80,513.07 C586.38,510.21 586.73,509.97 604.93,500.41 C615.15,495.05 626.35,489.12 629.84,487.23 C634.48,484.71 636.49,484.09 637.29,484.89 C637.90,485.50 639.32,485.99 640.45,485.98 C642.13,485.97 642.23,485.80 641.00,485.01 C637.86,483.01 641.41,480.50 660.50,471.19 C663.80,469.59 672.04,465.45 678.82,462.00 C688.32,457.17 691.40,456.00 692.32,456.92 C693.72,458.33 691.62,460.13 682.50,465.29 C679.20,467.16 663.00,476.70 646.50,486.48 C630.00,496.26 614.92,505.15 613.00,506.25 C611.08,507.34 608.38,509.01 607.00,509.95 ZM 440.36 517.42 C440.01,519.97 439.41,522.25 439.03,522.48 C438.65,522.72 436.80,521.88 434.92,520.62 C433.04,519.36 429.02,516.97 426.00,515.30 C422.98,513.64 414.53,508.73 407.24,504.39 C399.94,500.05 393.19,496.05 392.24,495.50 C359.84,476.87 358.00,475.68 358.00,473.47 C358.00,472.23 358.64,470.97 359.42,470.67 C360.82,470.13 377.00,478.03 406.00,493.38 C413.98,497.60 423.77,502.72 427.77,504.76 C432.01,506.92 434.85,508.96 434.58,509.66 C433.82,511.63 436.73,513.47 438.41,512.07 C440.46,510.37 441.09,512.09 440.36,517.42 ZM 652.60 270.27 C652.16,269.83 651.75,269.87 651.50,270.17 C651.33,267.68 652.41,266.37 655.22,263.93 C657.66,261.82 659.05,259.90 658.63,259.21 C658.24,258.58 655.72,257.77 653.03,257.41 C648.46,256.80 648.00,256.47 645.76,252.13 C644.45,249.58 642.85,247.50 642.21,247.50 C641.56,247.50 640.02,249.52 638.77,252.00 C636.84,255.83 635.90,256.63 632.50,257.36 C624.60,259.05 624.60,259.06 628.12,263.32 C631.09,266.94 631.23,267.48 630.65,273.07 C630.25,276.88 630.40,279.00 631.06,279.00 C631.63,279.00 634.18,277.89 636.73,276.53 L 641.36 274.07 L 646.43 276.92 C653.64,280.99 654.44,280.83 652.82,275.67 C652.46,274.52 652.16,273.52 651.94,272.66 C652.32,273.11 652.52,272.93 652.79,272.14 C653.02,271.44 652.94,270.60 652.60,270.27 ZM 537.00 257.00 C537.00,256.45 536.33,256.00 535.50,256.00 C534.97,256.00 534.50,256.19 534.23,256.47 C533.61,255.66 533.01,254.38 532.11,252.35 C530.80,249.37 529.22,247.09 528.61,247.29 C528.00,247.49 526.52,249.42 525.33,251.58 C522.11,257.37 521.30,258.00 517.02,258.00 C512.40,258.00 510.96,259.64 513.62,261.89 C518.56,266.05 519.13,267.45 517.99,272.53 C516.55,278.96 517.62,279.73 523.68,276.66 L 528.61 274.17 L 533.55 276.88 C539.51,280.14 540.60,279.25 538.89,272.47 L 537.73 267.85 L 542.07 263.43 C544.46,260.99 546.21,258.97 545.96,258.92 C545.71,258.88 544.60,258.65 543.50,258.42 C542.40,258.18 539.92,257.94 538.00,257.88 C537.40,257.86 536.90,257.83 536.47,257.76 C536.79,257.58 537.00,257.31 537.00,257.00 ZM 569.19 306.97 C573.10,309.34 574.30,308.52 573.08,304.28 C572.14,300.98 573.35,299.07 577.25,297.68 C578.21,297.34 579.00,296.30 579.00,295.36 C579.00,294.43 578.74,293.92 578.43,294.23 C577.47,295.20 570.59,292.89 568.81,291.00 C567.88,290.02 567.34,289.00 567.60,288.73 C567.87,288.46 567.37,287.97 566.51,287.64 C565.52,287.26 564.69,287.69 564.31,288.77 C563.16,292.01 560.70,294.00 557.85,294.00 C554.17,294.00 554.13,296.19 557.75,298.86 C557.95,299.00 558.13,299.14 558.30,299.27 C557.58,299.05 557.36,299.65 557.70,300.94 C558.03,302.21 558.71,302.91 559.23,302.97 C557.73,305.45 557.63,308.00 559.05,308.00 C559.63,308.00 561.41,307.32 563.01,306.49 C565.69,305.11 566.19,305.15 569.19,306.97 ZM 229.94 435.83 C225.62,436.03 219.80,436.24 213.71,436.39 L 192.92 436.91 L 191.92 434.28 C191.37,432.84 191.13,431.11 191.38,430.45 C192.15,428.45 199.16,428.08 202.29,429.88 C204.45,431.12 205.26,431.20 205.85,430.24 C206.45,429.27 207.76,429.30 212.06,430.38 C215.05,431.14 220.76,431.84 224.75,431.93 C225.82,431.96 226.97,432.03 228.10,432.13 C227.86,432.12 227.62,432.13 227.38,432.14 C224.86,432.22 224.37,432.41 226.00,432.67 C232.95,433.76 233.61,434.39 228.50,435.04 L 223.50 435.69 ZM 412.00 474.61 C412.00,475.38 411.44,475.97 410.75,475.94 C408.20,475.81 403.00,472.59 402.43,470.78 C402.02,469.48 401.26,469.10 399.90,469.53 C397.76,470.21 388.00,466.23 388.00,464.68 C388.00,464.15 387.21,463.12 386.25,462.39 C384.73,461.24 385.24,461.06 390.18,461.03 C393.86,461.01 396.39,460.47 397.36,459.50 C400.12,456.74 402.51,457.77 406.08,463.25 C410.51,470.04 412.00,472.91 412.00,474.61 ZM 795.50 436.00 C795.86,435.41 794.78,435.00 792.86,435.00 C789.47,435.00 789.83,433.66 793.50,432.64 C794.60,432.33 793.25,432.31 790.50,432.60 C785.32,433.13 782.86,433.67 782.19,434.48 C782.41,434.18 782.85,433.89 783.54,433.62 C784.39,433.30 790.13,432.55 796.29,431.97 C802.46,431.39 811.93,430.30 817.35,429.54 C828.17,428.03 833.00,428.79 833.00,431.98 C833.00,434.05 830.32,434.43 804.50,436.01 C800.85,436.23 797.36,436.43 794.46,436.58 C794.98,436.44 795.35,436.24 795.50,436.00 ZM 356.25 470.27 C355.29,470.55 353.83,471.01 353.00,471.30 C350.77,472.09 336.00,463.03 336.00,460.88 C336.00,459.13 339.51,460.08 347.62,464.00 C352.16,466.20 356.36,468.00 356.94,468.00 C358.67,468.00 358.14,469.73 356.25,470.27 ZM 625.00 469.58 C623.62,469.65 621.71,470.05 620.75,470.46 C619.73,470.90 619.00,470.78 619.00,470.19 C619.00,469.63 620.24,468.71 621.75,468.16 C623.26,467.61 623.94,467.12 623.25,467.08 C621.51,466.97 621.69,464.45 623.57,462.57 C625.15,460.99 630.46,460.47 633.42,461.61 C634.29,461.94 635.00,463.09 635.00,464.16 C635.00,466.28 629.35,469.35 625.00,469.58 ZM 782.27 435.46 C783.09,436.16 785.71,436.67 788.41,436.86 C787.66,436.89 787.17,436.89 787.00,436.88 C784.53,436.70 782.85,436.13 782.27,435.46 ZM 237.36 434.03 C238.93,434.63 238.97,434.83 237.82,435.13 C238.28,434.81 238.05,434.42 237.36,434.03 ZM 559.82 301.33 C559.74,300.93 559.57,300.52 559.34,300.18 C559.81,300.67 559.96,301.09 559.87,301.59 C559.85,301.51 559.84,301.42 559.82,301.33 Z" fill="rgb(22,75,149)"/>
<path d="M 720.44 443.79 C719.28,444.48 718.29,445.07 717.42,445.58 C719.09,444.43 719.72,443.43 719.36,442.49 C719.02,441.62 718.47,441.06 718.13,441.24 C717.86,441.38 716.87,441.88 715.73,442.45 C718.20,440.97 722.28,438.80 729.00,435.26 C734.78,432.22 740.07,429.28 740.77,428.72 C741.47,428.17 742.37,428.06 742.77,428.47 C743.17,428.89 742.65,429.74 741.61,430.37 C740.58,430.99 736.98,433.32 733.61,435.54 C730.25,437.77 724.32,441.48 720.44,443.79 ZM 623.12 594.22 C617.67,591.51 614.30,590.30 613.69,590.91 C612.88,591.72 614.18,593.64 618.51,598.01 C618.83,598.34 619.16,598.66 619.48,598.97 C619.22,598.73 618.96,598.49 618.70,598.25 C614.74,594.53 609.70,590.07 607.50,588.33 C600.38,582.70 605.61,582.89 613.50,588.55 C614.93,589.58 619.01,591.97 623.12,594.22 ZM 305.29 440.48 C303.27,439.58 301.34,439.04 300.50,439.36 C298.81,440.01 298.62,440.78 300.19,442.05 C296.85,439.80 294.13,437.47 294.68,436.92 C295.79,435.81 300.55,437.73 305.29,440.48 ZM 311.82 445.25 C311.79,445.06 311.68,444.85 311.52,444.63 C314.13,446.64 315.98,448.56 315.99,449.75 C316.01,451.59 314.31,451.27 312.81,449.16 C312.09,448.15 310.35,447.04 308.96,446.69 C307.95,446.44 306.52,445.80 304.96,444.96 C309.79,447.47 312.26,447.59 311.82,445.25 ZM 627.85 606.75 C627.47,607.76 626.06,608.91 623.75,609.90 C625.70,609.06 627.21,607.79 627.85,606.75 ZM 625.95 604.45 C626.05,604.50 626.14,604.55 626.22,604.57 C626.61,604.69 626.94,604.84 627.19,605.01 C627.12,605.00 627.03,605.00 626.95,605.00 C626.80,605.00 626.45,604.80 625.95,604.45 ZM 712.60 444.72 C712.30,445.12 712.10,445.52 712.03,445.89 C712.08,445.50 712.22,445.14 712.60,444.72 ZM 712.01 446.56 C712.04,447.13 712.13,447.51 712.35,447.71 C712.09,447.54 712.02,447.15 712.01,446.56 Z" fill="rgb(5,23,68)"/>
<path d="M 372.04 458.00 C374.09,457.95 373.56,456.25 370.52,453.16 C357.73,440.20 359.57,416.99 374.02,408.87 C376.17,407.66 377.69,406.30 377.40,405.84 C377.12,405.38 378.46,405.00 380.38,405.00 C382.31,405.00 384.20,404.49 384.58,403.87 C385.50,402.38 396.61,403.39 401.42,405.40 C407.02,407.74 411.79,411.85 415.62,417.62 C419.13,422.91 419.14,422.93 418.68,432.21 C418.43,437.32 417.89,442.96 417.50,444.75 C417.03,446.86 417.15,448.00 417.85,448.00 C418.45,448.00 419.51,449.08 420.22,450.39 C420.92,451.71 423.75,454.54 426.50,456.69 C432.52,461.39 448.53,471.26 450.84,471.70 C451.75,471.87 454.38,472.28 456.68,472.61 L 460.61 473.16 C459.41,475.43 458.46,476.95 458.20,476.92 C457.82,476.88 455.60,475.64 453.28,474.17 C450.96,472.70 445.11,469.05 440.28,466.05 C429.97,459.64 422.72,454.35 418.36,450.03 L 415.21 446.92 L 416.71 441.21 C419.85,429.29 416.95,419.23 408.36,412.14 C401.77,406.71 398.62,405.71 389.60,406.21 C380.75,406.69 377.52,407.97 371.81,413.25 C366.69,417.98 364.48,423.89 364.60,432.50 C364.73,441.15 367.11,446.88 373.12,453.02 C379.66,459.71 385.33,460.97 398.49,458.57 C398.12,458.80 397.74,459.12 397.36,459.50 C396.39,460.47 393.86,461.01 390.18,461.03 C385.24,461.06 384.73,461.24 386.25,462.39 C387.21,463.12 388.00,464.15 388.00,464.68 C388.00,466.23 397.76,470.21 399.90,469.53 C401.26,469.10 402.02,469.48 402.43,470.78 C402.79,471.91 404.94,473.58 407.13,474.71 C404.93,473.83 402.38,472.69 401.00,471.90 C399.42,470.99 394.06,468.41 381.25,462.38 C379.29,461.45 375.94,459.86 372.04,458.00 ZM 474.64 841.55 C478.89,842.76 542.10,843.25 544.50,842.09 C545.60,841.55 551.67,840.88 558.00,840.60 C565.06,840.29 571.89,839.50 579.85,837.99 C571.14,839.87 566.11,840.97 561.75,841.97 C559.41,842.51 549.02,843.63 538.65,844.47 C528.29,845.31 516.36,845.93 512.15,845.85 C497.23,845.57 474.45,844.02 471.00,843.06 C469.15,842.55 464.07,841.64 459.52,841.01 C464.46,841.67 468.95,842.32 469.50,842.45 C470.05,842.59 470.79,842.26 471.14,841.71 C471.53,841.12 472.92,841.05 474.64,841.55 ZM 624.48 471.05 C618.84,473.82 615.00,474.77 615.00,473.40 C615.00,473.08 615.80,471.61 616.79,470.15 C617.77,468.69 619.14,466.38 619.84,465.00 C622.41,459.97 624.89,457.74 627.25,458.36 C628.49,458.68 632.06,459.53 635.18,460.24 C638.31,460.95 641.19,461.86 641.59,462.25 C641.98,462.65 639.65,464.13 636.40,465.54 C633.16,466.95 627.79,469.43 624.48,471.05 ZM 654.41 706.01 C655.77,704.41 656.94,702.59 657.86,700.56 C662.76,689.86 662.82,683.41 658.12,674.60 C653.16,665.30 644.71,661.32 632.36,662.48 L 625.16 663.16 L 621.48 657.39 C619.45,654.22 617.28,650.48 616.65,649.07 C616.60,648.94 616.51,648.77 616.40,648.56 C616.82,648.97 617.50,649.47 618.28,649.88 C619.53,650.55 621.58,653.33 622.83,656.05 C624.63,659.97 625.60,661.00 627.49,661.00 C628.81,661.00 630.16,660.55 630.50,660.00 C631.33,658.65 638.52,658.73 642.93,660.14 C651.72,662.94 654.92,665.77 660.05,675.30 C662.83,680.46 663.12,681.77 662.70,687.30 C662.44,690.71 661.88,694.85 661.46,696.50 C660.89,698.76 658.00,702.54 654.41,706.01 ZM 751.41 487.88 C747.68,486.90 744.40,486.16 744.08,486.21 C743.24,486.36 739.71,484.85 738.24,483.71 C737.28,482.97 737.25,482.40 738.12,481.35 C739.09,480.19 746.10,480.07 780.89,480.58 L 822.50 481.20 L 825.62 478.85 C826.39,478.27 827.63,477.30 829.06,476.18 C826.94,478.13 825.27,479.96 824.83,481.06 C823.84,483.54 810.08,484.82 808.44,482.58 C807.46,481.24 804.61,481.00 789.89,481.03 C780.33,481.04 768.16,481.47 762.87,481.99 C757.15,482.55 751.96,482.56 750.12,482.03 C747.74,481.35 746.63,481.51 745.44,482.71 C743.32,484.82 744.70,486.07 751.41,487.88 ZM 572.69 473.90 C567.41,476.71 562.95,479.00 562.79,479.00 C562.63,479.00 560.52,475.29 558.09,470.75 C557.88,470.36 557.67,469.96 557.45,469.57 C559.73,472.97 562.91,476.08 563.94,475.64 C564.25,475.51 565.85,474.75 567.50,473.95 C569.15,473.16 570.76,472.14 571.09,471.71 C571.41,471.27 574.33,469.83 577.59,468.52 C580.84,467.21 584.88,464.74 586.57,463.04 C588.26,461.34 590.51,459.78 591.57,459.56 C594.78,458.90 598.81,456.92 604.75,453.07 C602.60,454.63 600.41,456.33 599.10,457.51 C594.84,461.34 585.91,466.88 572.69,473.90 ZM 180.74 553.03 C179.32,540.01 178.03,521.89 178.02,511.86 C177.99,490.68 180.15,468.12 182.20,468.00 C181.53,468.05 181.23,472.60 181.34,481.09 C181.47,491.04 181.20,494.35 180.19,494.91 C179.14,495.50 178.98,499.30 179.43,513.58 C179.74,523.43 180.14,536.90 180.32,543.50 C180.42,547.15 180.55,550.28 180.74,553.03 ZM 837.00 436.15 C837.00,437.42 836.27,438.00 834.67,438.00 C833.38,438.00 832.07,437.74 831.76,437.42 C831.44,437.11 820.34,436.73 807.08,436.58 C803.70,436.55 800.46,436.49 797.49,436.42 C799.67,436.30 802.05,436.16 804.50,436.01 C830.32,434.43 833.00,434.05 833.00,431.98 C833.00,428.79 828.17,428.03 817.35,429.54 C811.93,430.30 802.46,431.39 796.29,431.97 C796.02,432.00 795.75,432.03 795.49,432.05 C800.21,431.53 807.05,430.73 813.19,429.96 L 814.15 429.84 C829.07,427.97 832.53,427.54 834.13,429.06 C834.65,429.55 834.97,430.24 835.43,431.15 C836.29,432.89 837.00,435.14 837.00,436.15 ZM 619.39 413.95 C621.48,411.63 623.50,410.06 624.70,410.03 C625.37,410.01 627.03,408.88 628.41,407.50 C630.93,404.98 634.00,404.15 634.00,406.00 C634.00,407.42 636.75,407.25 637.23,405.80 C637.54,404.88 638.36,404.91 640.76,405.90 C642.49,406.62 645.47,407.20 647.40,407.20 C649.87,407.20 651.33,407.83 652.34,409.35 C653.13,410.53 655.81,413.69 658.29,416.37 C662.75,421.18 662.82,421.36 663.50,430.03 C663.54,430.47 663.57,430.89 663.60,431.30 C662.33,425.07 658.20,417.69 653.50,413.79 C649.46,410.44 647.44,409.48 641.23,408.03 C636.73,406.97 635.04,407.04 629.73,408.48 C625.07,409.74 622.03,411.25 619.39,413.95 ZM 625.00 469.58 C629.35,469.35 635.00,466.28 635.00,464.16 C635.00,463.09 634.29,461.94 633.42,461.61 C630.46,460.47 625.15,460.99 623.57,462.57 C621.69,464.45 621.51,466.97 623.25,467.08 C623.94,467.12 623.26,467.61 621.75,468.16 C620.24,468.71 619.00,469.63 619.00,470.19 C619.00,470.78 619.73,470.90 620.75,470.46 C621.71,470.05 623.62,469.65 625.00,469.58 ZM 562.22 182.43 C548.51,181.23 527.71,180.51 507.25,180.70 C497.21,180.80 489.00,180.52 489.00,180.08 C489.00,179.97 488.88,179.87 488.64,179.80 C495.35,179.63 503.73,179.54 513.50,179.54 C541.38,179.52 548.94,179.82 555.50,181.19 C557.47,181.60 559.86,182.03 562.22,182.43 ZM 423.79 620.88 C424.54,621.42 424.99,621.90 424.98,622.19 C424.96,624.02 417.16,637.03 410.68,646.06 C410.13,646.82 409.58,647.60 409.04,648.37 C410.43,646.05 411.07,643.74 411.47,640.00 C411.62,638.62 411.80,637.19 411.87,636.82 C411.94,636.44 412.85,635.87 413.89,635.54 C415.96,634.88 421.00,627.87 421.00,625.64 C421.00,624.87 421.67,623.68 422.50,623.00 C423.57,622.11 424.04,621.48 423.79,620.88 ZM 546.73 663.57 C550.58,654.57 553.00,648.62 553.00,648.07 C553.00,646.54 557.11,640.00 558.07,640.00 C558.92,640.00 560.26,640.71 570.53,646.61 C572.17,647.55 574.38,648.78 576.46,649.92 C572.42,647.80 568.61,646.00 567.80,645.99 C567.08,645.99 565.19,645.31 563.60,644.47 C559.56,642.37 557.20,643.41 556.41,647.63 C555.97,649.97 555.01,651.43 553.54,651.99 C552.17,652.51 550.45,654.88 549.05,658.16 C548.41,659.66 547.63,661.49 546.73,663.57 ZM 229.94 435.83 L 230.08 435.83 C225.81,436.04 220.04,436.26 214.00,436.42 C202.73,436.72 192.60,437.21 191.50,437.50 C190.40,437.79 188.90,437.63 188.16,437.15 C187.04,436.42 187.09,435.73 188.41,433.18 C189.28,431.49 190.00,429.37 190.00,428.48 C190.00,427.40 190.58,427.05 191.75,427.42 C192.71,427.72 196.43,428.18 200.00,428.44 C203.57,428.70 208.30,429.37 210.50,429.91 C212.70,430.46 215.46,430.67 216.64,430.37 C217.82,430.08 219.08,430.32 219.45,430.92 C219.68,431.29 220.94,431.63 222.68,431.84 C218.97,431.61 214.56,431.02 212.06,430.38 C207.76,429.30 206.45,429.27 205.85,430.24 C205.26,431.20 204.45,431.12 202.29,429.88 C199.16,428.08 192.15,428.45 191.38,430.45 C191.13,431.11 191.37,432.84 191.92,434.28 L 192.92 436.91 L 213.71 436.39 C219.80,436.24 225.62,436.03 229.94,435.83 ZM 449.26 649.82 C453.54,647.20 457.66,644.64 459.67,643.34 C465.78,639.39 466.74,639.27 467.97,642.25 C468.48,643.49 473.12,654.17 478.28,666.00 C483.44,677.83 488.26,689.08 488.98,691.00 C489.70,692.92 491.84,697.88 493.73,702.00 C495.43,705.71 498.28,712.40 500.39,717.63 C497.34,710.18 495.73,707.39 494.42,707.15 C491.42,706.61 490.73,705.41 492.12,703.18 C493.11,701.59 493.14,700.60 492.24,698.81 C491.60,697.54 489.94,693.58 488.53,690.00 C487.13,686.42 482.05,674.58 477.24,663.69 L 468.50 643.88 L 463.50 644.18 C459.67,644.41 456.51,645.63 450.00,649.39 C449.75,649.53 449.51,649.68 449.26,649.82 ZM 663.82 436.36 C663.87,441.59 663.14,444.87 661.33,448.85 C658.90,454.22 660.48,454.56 671.07,449.64 C669.47,450.42 667.91,451.18 666.50,451.89 C661.00,454.65 656.36,456.51 656.19,456.02 C656.02,455.53 657.71,451.36 659.94,446.74 C661.81,442.88 663.32,438.79 663.82,436.36 ZM 239.81 481.71 L 241.81 481.68 C265.38,481.32 284.11,481.43 284.90,481.92 C286.85,483.15 280.00,486.52 273.67,487.44 C271.56,487.75 268.57,488.43 266.28,489.11 C268.39,488.47 270.98,487.84 272.76,487.54 C275.41,487.09 277.00,486.29 277.00,485.41 C277.00,484.64 276.55,484.00 276.00,484.00 C275.45,484.00 275.00,483.37 275.00,482.59 C275.00,481.43 269.59,481.28 239.81,481.71 ZM 365.43 677.17 C365.39,677.39 365.34,677.61 365.30,677.84 C364.07,685.11 364.57,693.98 366.41,698.70 C365.38,696.38 364.31,694.27 364.03,694.00 C363.74,693.72 362.94,691.95 362.26,690.04 C360.94,686.37 362.07,681.02 364.75,678.18 C365.00,677.91 365.23,677.56 365.43,677.17 ZM 599.75 514.27 C590.55,519.83 588.76,520.86 587.83,520.34 C587.60,520.21 587.42,520.00 587.20,519.73 C586.65,519.05 586.04,516.75 585.85,514.61 L 585.50 510.72 L 597.50 504.32 C604.10,500.80 616.25,494.37 624.50,490.05 C626.13,489.19 627.84,488.29 629.55,487.39 C625.76,489.43 614.88,495.19 604.93,500.41 C586.73,509.97 586.38,510.21 586.80,513.07 C587.03,514.67 587.62,515.73 588.11,515.43 C588.60,515.13 589.00,515.33 589.00,515.87 C589.00,518.22 593.71,517.31 599.75,514.27 ZM 356.25 470.27 C357.23,469.99 357.84,469.40 357.97,468.89 C362.03,470.88 366.81,473.27 372.42,476.08 C372.73,476.24 373.04,476.39 373.34,476.55 C364.88,472.40 360.15,470.39 359.42,470.67 C358.64,470.97 358.00,472.23 358.00,473.47 C358.00,474.74 358.61,475.68 365.33,479.81 C361.23,477.41 357.83,475.43 356.23,474.49 C355.29,473.94 351.25,471.58 347.19,469.21 C349.89,470.64 352.22,471.58 353.00,471.30 C353.83,471.01 355.29,470.55 356.25,470.27 ZM 670.27 589.17 C670.65,588.87 671.04,588.51 671.39,588.12 C673.02,586.32 672.90,586.01 668.90,581.37 C667.14,579.34 663.47,575.27 659.79,571.28 C666.29,578.20 669.72,581.55 670.41,581.63 C671.01,581.71 671.84,581.88 672.25,582.01 C672.66,582.14 673.56,582.31 674.25,582.38 C674.94,582.44 675.50,583.83 675.50,585.50 C675.50,587.81 675.04,588.51 673.50,588.56 C672.63,588.59 671.33,588.84 670.27,589.17 ZM 569.87 698.83 C568.28,693.22 566.99,687.61 566.90,685.24 L 566.80 682.50 L 566.00 685.00 C565.07,687.92 564.93,694.14 565.38,700.28 C564.65,691.78 564.57,682.64 565.78,682.24 C566.45,682.02 567.00,682.35 567.00,682.98 C567.00,683.60 567.52,683.80 568.15,683.41 C568.98,682.90 569.14,684.05 568.74,687.57 C568.43,690.37 568.89,694.49 569.87,698.83 ZM 790.10 406.18 C794.47,405.26 797.59,404.58 798.25,404.39 C799.21,404.10 800.00,403.22 800.00,402.43 C800.00,400.88 805.57,400.35 806.17,401.84 C806.36,402.33 812.32,401.56 817.41,400.62 C816.84,400.72 816.26,400.83 815.68,400.92 C811.73,401.60 806.92,402.65 805.00,403.28 C803.08,403.90 801.21,404.33 800.85,404.24 C800.58,404.17 796.16,404.97 790.10,406.18 ZM 631.56 486.32 C637.84,483.00 643.94,479.72 646.89,478.09 C650.95,475.84 654.43,474.00 654.62,474.00 C654.69,474.00 654.97,473.89 655.46,473.68 C640.79,480.97 638.16,483.20 641.00,485.01 C642.23,485.80 642.13,485.97 640.45,485.98 C639.32,485.99 637.90,485.50 637.29,484.89 C636.59,484.19 634.99,484.57 631.56,486.32 ZM 555.47 415.39 C556.55,416.22 557.54,417.16 558.16,418.01 C559.70,420.08 560.94,420.84 562.19,420.44 C564.12,419.83 564.30,420.39 563.11,423.40 C562.70,424.44 562.93,428.26 563.61,431.88 C564.63,437.33 564.67,439.92 563.51,439.98 C564.70,439.89 564.59,437.05 563.43,430.97 C562.07,423.77 559.34,418.46 555.47,415.39 ZM 440.50 511.50 L 440.46 512.20 C440.15,511.23 439.47,511.20 438.41,512.07 C436.73,513.47 433.82,511.63 434.58,509.66 C434.79,509.11 433.11,507.75 430.34,506.15 ZM 500.38 416.67 C501.41,416.25 502.31,416.00 502.95,416.00 C504.64,416.00 506.92,415.44 508.01,414.76 C509.59,413.77 510.41,413.77 511.99,414.76 C513.03,415.41 514.05,415.79 515.42,415.88 C513.13,416.10 510.82,416.22 508.54,416.22 C504.36,416.23 502.08,416.27 500.38,416.67 ZM 363.62 571.82 C355.49,580.82 351.00,586.39 351.00,587.49 C351.00,588.22 353.03,589.46 360.27,592.86 C350.01,588.08 349.92,587.49 350.19,585.21 C350.40,583.35 351.08,582.50 352.36,582.49 C353.39,582.49 355.42,581.09 356.86,579.37 C357.84,578.22 360.49,575.26 363.62,571.82 ZM 278.44 533.95 C282.24,532.69 285.60,531.52 286.50,531.13 C288.85,530.13 293.56,528.72 300.50,526.96 C303.25,526.26 305.95,525.39 306.50,525.02 C307.05,524.66 309.30,523.85 311.50,523.23 C309.30,523.85 307.05,524.67 306.50,525.05 C305.95,525.43 302.68,526.45 299.24,527.31 C295.80,528.17 291.85,529.76 290.48,530.84 C289.10,531.92 287.19,532.60 286.24,532.36 C285.46,532.16 282.20,532.84 278.44,533.95 ZM 708.21 522.11 C709.10,522.39 710.03,522.69 711.00,523.00 C715.67,524.49 723.10,526.74 727.50,527.98 C731.90,529.22 737.30,531.01 739.50,531.94 C740.34,532.30 741.53,532.76 742.87,533.23 C739.81,532.36 737.15,531.78 736.25,531.84 C735.01,531.91 734.00,531.55 734.00,531.03 C734.00,530.51 729.39,528.68 723.75,526.97 C718.24,525.30 711.35,523.14 708.21,522.11 ZM 203.31 399.80 C203.57,399.88 203.85,399.96 204.16,400.04 C210.84,401.84 220.05,403.12 221.95,402.51 C222.92,402.21 224.29,402.64 224.98,403.48 C225.44,404.03 226.20,404.52 226.94,404.78 C226.54,404.73 226.19,404.70 225.89,404.68 C224.03,404.55 222.02,404.15 221.43,403.78 C220.84,403.40 217.65,402.66 214.33,402.13 C208.95,401.26 205.48,400.57 203.31,399.80 ZM 573.90 299.58 C574.22,299.17 574.62,298.72 575.11,298.20 C577.41,295.74 577.95,294.98 576.17,294.30 C577.27,294.52 578.13,294.53 578.43,294.23 C578.74,293.92 579.00,294.43 579.00,295.36 C579.00,296.30 578.21,297.34 577.25,297.68 C575.74,298.22 574.63,298.83 573.90,299.58 ZM 359.05 451.77 C364.66,454.33 368.55,455.73 369.35,455.42 C370.46,454.99 371.00,455.31 371.00,456.39 C371.00,456.92 371.15,457.39 371.38,457.69 C367.51,455.83 363.14,453.74 359.05,451.77 ZM 379.29 711.62 C385.00,714.30 391.64,715.06 397.96,713.50 C391.97,715.13 385.60,714.86 380.20,712.10 C379.90,711.95 379.59,711.79 379.29,711.62 ZM 823.40 393.21 C821.37,387.26 817.19,377.42 812.65,367.72 C817.99,378.82 821.73,387.75 823.40,393.21 ZM 479.37 180.13 C477.12,180.37 474.49,180.68 471.50,181.06 C468.21,181.49 464.98,181.94 461.83,182.41 C464.86,181.92 468.23,181.37 472.00,180.76 C473.50,180.52 475.99,180.31 479.37,180.13 ZM 394.79 199.37 C385.29,202.97 375.82,207.13 366.00,211.95 C362.79,213.52 360.06,214.89 357.68,216.10 C363.13,213.29 370.02,209.94 378.50,205.98 C382.66,204.03 388.49,201.69 394.79,199.37 ZM 632.71 714.35 C637.98,714.89 643.19,713.89 647.65,711.49 C643.34,714.13 638.02,714.98 632.71,714.35 ZM 785.14 320.69 C780.08,313.31 775.67,307.40 771.97,303.00 C776.72,308.63 779.68,312.56 785.14,320.69 ZM 673.64 388.27 C671.42,386.09 669.56,384.48 668.77,384.18 C668.37,384.04 665.22,382.60 661.77,381.00 C665.22,382.60 668.14,383.82 668.27,383.71 C668.58,383.43 670.84,385.44 673.64,388.27 ZM 417.40 671.50 C418.04,670.88 418.98,670.20 420.25,669.26 C421.17,668.58 422.34,667.72 423.57,666.81 C423.54,666.83 423.51,666.86 423.48,666.89 C421.81,668.32 419.37,670.21 418.05,671.08 ZM 371.59 667.07 C373.98,664.76 376.30,663.57 380.96,662.01 C377.21,663.27 374.06,664.97 371.59,667.07 ZM 406.26 463.52 C406.20,463.43 406.14,463.34 406.08,463.25 C404.22,460.40 402.68,458.75 401.24,458.22 C402.79,458.31 403.59,459.43 406.02,463.15 C406.10,463.27 406.18,463.40 406.26,463.52 ZM 615.79 647.42 C614.27,644.65 611.11,639.24 607.78,633.76 L 600.05 621.02 L 608.02 634.10 C611.79,640.28 614.97,645.74 615.79,647.42 ZM 424.99 503.33 C420.19,500.85 412.49,496.82 406.00,493.38 C403.73,492.18 401.54,491.02 399.43,489.91 C406.04,493.36 414.11,497.60 424.99,503.33 ZM 607.85 509.38 C609.31,508.43 611.42,507.14 613.00,506.25 C614.92,505.15 630.00,496.26 646.50,486.48 C630.00,496.26 615.15,505.05 613.50,506.01 C612.57,506.56 610.43,507.83 607.85,509.38 ZM 417.80 695.12 C418.89,691.35 419.12,687.26 418.38,683.06 C419.25,687.60 419.05,691.03 417.80,695.12 ZM 495.54 419.37 C493.32,421.09 491.27,422.75 491.00,423.06 C492.21,421.70 494.13,420.19 496.12,418.93 C495.93,419.07 495.74,419.21 495.54,419.37 ZM 666.91 590.57 C662.23,592.63 653.67,596.55 647.00,599.69 C658.62,594.22 664.29,591.60 666.91,590.57 ZM 342.48 461.65 C345.10,462.73 348.69,464.38 353.53,466.72 C351.88,466.01 349.79,465.05 347.62,464.00 C345.64,463.04 343.93,462.26 342.48,461.65 ZM 403.61 611.45 C406.61,612.86 410.81,614.73 416.53,617.22 C411.74,615.24 407.14,613.17 403.61,611.45 ZM 412.00 474.61 C412.00,474.31 411.95,473.98 411.85,473.59 C412.39,475.24 412.10,476.00 411.03,476.00 C410.93,476.00 410.77,475.97 410.56,475.92 C410.63,475.93 410.69,475.93 410.75,475.94 C411.44,475.97 412.00,475.38 412.00,474.61 ZM 566.20 707.56 C566.67,710.45 567.27,712.93 567.97,714.50 C567.98,714.53 568.00,714.57 568.01,714.61 C567.99,714.56 567.97,714.53 567.95,714.50 C567.31,713.59 566.71,710.95 566.20,707.56 ZM 467.47 458.96 C468.04,457.78 468.61,456.62 469.14,455.54 C472.24,449.24 473.13,446.28 471.82,445.42 C473.12,446.25 472.38,448.99 469.63,454.55 C469.02,455.79 468.27,457.31 467.47,458.96 ZM 407.63 650.42 C405.78,653.17 404.20,655.64 403.61,656.78 C402.33,659.27 401.16,660.60 399.32,661.06 C401.17,660.59 402.33,659.25 403.64,656.72 C404.54,654.97 406.32,652.16 407.63,650.42 ZM 340.41 465.06 C337.41,463.07 336.12,461.84 336.01,460.97 C336.14,461.77 337.98,463.36 340.41,465.06 ZM 443.66 185.54 C438.76,186.51 433.99,187.55 429.32,188.69 C434.12,187.48 438.22,186.57 443.66,185.54 ZM 183.00 567.50 C183.47,569.15 184.30,572.75 184.85,575.50 C184.30,572.75 183.42,569.10 182.91,567.38 C182.73,566.80 182.55,565.98 182.36,564.96 C182.55,565.83 182.77,566.67 183.00,567.50 ZM 610.83 699.65 C608.54,694.71 608.04,688.15 609.24,678.69 C608.08,687.83 608.51,694.45 610.83,699.65 ZM 524.35 414.43 C524.87,414.29 525.42,414.15 526.00,414.00 C529.69,413.03 533.91,412.42 537.95,412.18 C533.92,412.44 529.64,413.08 525.67,414.10 C525.23,414.21 524.79,414.32 524.35,414.43 ZM 554.89 464.93 C553.56,462.60 552.41,460.67 551.84,459.84 C550.17,457.44 547.92,453.62 546.11,450.26 C547.95,453.65 550.22,457.51 551.87,459.84 C552.63,460.92 553.82,462.95 554.89,464.93 ZM 573.82 728.54 C577.18,734.40 582.04,741.19 586.37,745.75 C581.91,741.05 577.14,734.40 573.82,728.54 ZM 692.39 518.33 C693.02,518.05 694.74,518.27 697.91,519.08 C695.17,518.43 693.29,518.17 692.39,518.33 ZM 579.67 651.65 C579.91,651.77 580.13,651.89 580.35,652.00 C582.54,653.15 584.96,654.63 586.27,655.62 C584.96,654.67 582.45,653.18 579.67,651.65 ZM 568.76 290.95 C567.74,290.04 567.18,289.16 567.60,288.73 C567.34,288.99 567.86,289.98 568.76,290.95 ZM 417.72 680.12 C417.65,679.88 417.58,679.65 417.51,679.41 C416.94,677.53 416.53,676.18 416.34,675.13 L 417.32 678.64 C417.46,679.15 417.59,679.64 417.72,680.12 ZM 694.23 428.07 C693.85,424.11 692.87,419.56 691.41,415.03 C692.89,419.57 693.91,424.17 694.23,428.07 ZM 338.88 442.46 C337.57,442.05 335.43,441.01 334.12,440.15 C335.43,441.01 337.61,442.06 338.98,442.50 C340.06,442.84 344.73,444.95 350.24,447.58 C344.42,444.84 339.82,442.76 338.88,442.46 ZM 573.65 293.59 L 573.50 293.56 C572.42,293.30 571.22,292.71 570.17,292.02 C571.15,292.60 572.41,293.16 573.65,293.59 ZM 228.87 405.07 C230.35,405.26 233.08,405.82 235.67,406.47 C236.70,406.73 238.07,407.05 239.62,407.39 C237.98,407.03 236.51,406.70 235.39,406.42 C233.31,405.90 230.87,405.40 228.87,405.07 ZM 681.50 444.72 C683.93,443.60 685.97,442.69 687.27,442.14 C686.19,442.65 684.94,443.21 683.50,443.84 C682.92,444.09 682.24,444.39 681.50,444.72 ZM 366.98 672.77 C366.60,673.52 366.27,674.29 366.00,675.08 L 366.00 675.07 C366.00,674.62 366.37,673.78 366.98,672.77 ZM 756.49 412.94 C748.30,414.50 743.93,415.70 736.06,419.13 C743.88,415.72 748.21,414.51 756.00,413.03 C757.05,412.83 758.19,412.61 759.40,412.38 C758.30,412.59 757.32,412.78 756.49,412.94 ZM 612.34 448.03 L 613.14 447.50 L 612.40 442.50 C611.89,439.09 611.68,435.93 611.76,433.04 C611.68,435.94 611.90,439.09 612.41,442.50 L 613.16 447.50 ZM 776.90 494.46 C781.70,495.65 786.57,496.81 789.50,497.44 C785.92,496.67 782.48,495.86 776.90,494.46 ZM 336.00 460.86 L 336.00 460.85 C336.00,459.87 336.90,459.65 339.73,460.60 C337.19,459.76 336.01,459.87 336.00,460.86 ZM 546.95 412.31 C549.13,412.54 551.00,412.94 552.35,413.50 C552.82,413.70 553.32,413.96 553.83,414.27 C553.55,414.10 553.26,413.94 552.96,413.80 C551.50,413.08 549.42,412.58 546.95,412.31 ZM 238.17 435.03 C238.94,434.78 238.75,434.56 237.36,434.03 C237.24,433.95 237.09,433.88 236.94,433.81 C238.81,434.52 239.12,434.74 238.17,435.03 ZM 791.37 432.48 C789.65,432.67 788.08,432.87 786.80,433.04 C787.99,432.84 789.39,432.66 790.97,432.52 C791.09,432.51 791.23,432.49 791.37,432.48 ZM 377.79 600.87 C382.29,602.88 384.42,603.61 386.32,603.25 C386.29,603.26 386.27,603.26 386.24,603.27 C384.33,603.61 382.23,602.87 377.79,600.87 ZM 573.03 304.11 C572.68,302.81 572.60,301.95 572.98,301.04 C572.69,301.91 572.71,302.92 573.03,304.11 ZM 593.68 188.61 C599.72,190.05 606.06,191.64 609.00,192.49 C606.33,191.72 599.87,190.10 593.68,188.61 ZM 782.27 435.46 C782.34,435.54 782.42,435.62 782.52,435.69 C782.39,435.66 782.30,435.63 782.27,435.61 C782.07,435.41 781.98,435.21 782.00,435.02 C782.01,435.17 782.10,435.32 782.27,435.46 ZM 445.24 838.46 C450.39,839.51 455.23,840.40 458.84,840.91 C455.33,840.43 450.46,839.53 445.24,838.46 ZM 577.48 184.82 C577.55,184.86 577.63,184.90 577.72,184.94 C577.46,184.86 577.21,184.77 577.00,184.69 C576.85,184.63 576.68,184.57 576.50,184.51 C576.99,184.63 577.34,184.73 577.48,184.82 ZM 766.97 491.92 C763.34,490.99 759.08,489.88 754.00,488.55 C757.22,489.39 762.26,490.70 766.97,491.92 ZM 763.35 531.37 L 763.98 530.88 C768.56,527.31 772.72,524.05 776.44,521.10 C772.76,524.01 768.66,527.23 764.14,530.75 C763.88,530.96 763.61,531.16 763.35,531.37 ZM 509.97 739.78 C510.72,741.01 511.29,741.60 511.78,741.76 C511.28,741.59 510.72,741.03 509.97,739.78 ZM 435.35 520.90 C435.22,520.82 435.09,520.74 434.96,520.65 C433.06,519.37 429.03,516.97 426.00,515.30 C429.03,516.97 433.04,519.36 434.92,520.62 C435.06,520.72 435.21,520.81 435.35,520.90 ZM 648.00 557.75 C648.01,557.82 648.05,557.94 648.13,558.10 C648.05,557.96 648.00,557.86 648.00,557.81 C648.00,557.78 648.00,557.75 648.01,557.72 C648.00,557.73 648.00,557.74 648.00,557.75 ZM 840.50 467.93 C840.73,467.85 840.92,467.81 841.06,467.81 C840.90,467.82 840.72,467.86 840.50,467.93 Z" fill="rgb(254,254,254)"/>
</g>
</svg>
